<!DOCTYPE svg PUBLIC "-//W3C//DTD SVG 1.1//EN" "http://www.w3.org/Graphics/SVG/1.1/DTD/svg11.dtd">
<svg xmlns="http://www.w3.org/2000/svg" xmlns:xlink="http://www.w3.org/1999/xlink" version="1.1" width="1251px" height="211px" viewBox="-0.5 -0.5 1251 211" style="background-color: rgb(255, 255, 255);"><defs/><rect x="220" y="80" width="120" height="130" rx="18" ry="18" fill="#fff2cc" stroke="#d6b656" pointer-events="none"/><g fill="#000000" font-family="Helvetica" text-anchor="middle" font-size="16px"><text x="279.5" y="131.5">Advertising</text><text x="279.5" y="150.5">Data</text><text x="279.5" y="169.5">= 1650 bytes</text></g><rect x="410" y="80" width="120" height="130" rx="18" ry="18" fill="#fff2cc" stroke="#d6b656" pointer-events="none"/><g fill="#000000" font-family="Helvetica" text-anchor="middle" font-size="16px"><text x="469.5" y="131.5">Advertising</text><text x="469.5" y="150.5">Data</text><text x="469.5" y="169.5">= 1650 bytes</text></g><rect x="600" y="80" width="120" height="130" rx="18" ry="18" fill="#f5f5f5" stroke="#666666" stroke-dasharray="3 3" pointer-events="none"/><g fill="#333333" font-family="Helvetica" text-anchor="middle" font-size="16px"><text x="659.5" y="131.5">Advertising</text><text x="659.5" y="150.5">Data</text><text x="659.5" y="169.5">= 1650 bytes</text></g><g fill="#000000" font-family="Helvetica" text-anchor="middle" font-size="16px"><text x="94.5" y="15.5">Advertising handle</text></g><g fill="#000000" font-family="Helvetica" text-anchor="middle" font-size="16px"><text x="279.5" y="15.5">#0</text></g><g fill="#000000" font-family="Helvetica" text-anchor="middle" font-size="16px"><text x="469.5" y="15.5">#1</text></g><g fill="#000000" font-family="Helvetica" text-anchor="middle" font-size="16px"><text x="659.5" y="15.5">#2</text></g><g fill="#000000" font-family="Helvetica" text-anchor="middle" font-size="16px"><text x="94.5" y="55.5">Advertising Data Size</text></g><g fill="#000000" font-family="Helvetica" text-anchor="middle" font-size="16px"><text x="279.5" y="55.5">1650 bytes</text></g><g fill="#000000" font-family="Helvetica" text-anchor="middle" font-size="16px"><text x="472.5" y="55.5">1650 bytes</text></g><g fill="#000000" font-family="Helvetica" text-anchor="middle" font-size="16px"><text x="659.5" y="55.5">1650 bytes</text></g><path d="M 859.5 129.5 L 859.5 158.5 L 813.51 158.5 L 813.51 174 L 780.5 144 L 813.51 114 L 813.51 129.5 Z" fill="#ff8000" stroke="none" pointer-events="none"/><g fill="#000000" font-family="Helvetica" font-size="16px"><text x="901.5" y="122">Configuraiton of Advertising Data in </text><text x="901.5" y="141">Advertising handle #2 is failed, </text><text x="901.5" y="160">because the sum of Advertising Data in </text><text x="901.5" y="179">Advertising Set #0-2  exceeds 4250 bytes.</text></g></svg>