<!DOCTYPE svg PUBLIC "-//W3C//DTD SVG 1.1//EN" "http://www.w3.org/Graphics/SVG/1.1/DTD/svg11.dtd">
<svg xmlns="http://www.w3.org/2000/svg" xmlns:xlink="http://www.w3.org/1999/xlink" version="1.1" width="1471px" height="211px" viewBox="-0.5 -0.5 1471 211" style="background-color: rgb(255, 255, 255);"><defs/><rect x="220" y="80" width="120" height="130" rx="18" ry="18" fill="#fff2cc" stroke="#d6b656" pointer-events="none"/><g fill="#000000" font-family="Helvetica" text-anchor="middle" font-size="16px"><text x="279.5" y="131.5">Advertising</text><text x="279.5" y="150.5">Data</text><text x="279.5" y="169.5">= 1000 bytes</text></g><rect x="410" y="80" width="120" height="130" rx="18" ry="18" fill="#fff2cc" stroke="#d6b656" pointer-events="none"/><g fill="#000000" font-family="Helvetica" text-anchor="middle" font-size="16px"><text x="469.5" y="131.5">Advertising</text><text x="469.5" y="150.5">Data</text><text x="469.5" y="169.5">= 1000 bytes</text></g><g fill="#000000" font-family="Helvetica" text-anchor="middle" font-size="16px"><text x="94.5" y="15.5">Advertising handle</text></g><g fill="#000000" font-family="Helvetica" text-anchor="middle" font-size="16px"><text x="279.5" y="15.5">#0</text></g><g fill="#000000" font-family="Helvetica" text-anchor="middle" font-size="16px"><text x="469.5" y="15.5">#1</text></g><g fill="#000000" font-family="Helvetica" text-anchor="middle" font-size="16px"><text x="659.5" y="15.5">#2</text></g><g fill="#000000" font-family="Helvetica" text-anchor="middle" font-size="16px"><text x="94.5" y="55.5">Advertising Data Size</text></g><g fill="#000000" font-family="Helvetica" text-anchor="middle" font-size="16px"><text x="279.5" y="55.5">1000 bytes</text></g><path d="M 1079.5 137 L 1079.5 166 L 1033.51 166 L 1033.51 181.5 L 1000.5 151.5 L 1033.51 121.5 L 1033.51 137 Z" fill="#ff8000" stroke="none" pointer-events="none"/><g fill="#000000" font-family="Helvetica" font-size="16px"><text x="1111.5" y="122">Configuraiton of Advertising Data in </text><text x="1111.5" y="141">Advertising handle #0-3 is successful, </text><text x="1111.5" y="160">because the sum of Advertising Data in </text><text x="1111.5" y="179">Advertising Set #0-3  does not exceed 4250 bytes.</text></g><rect x="607.5" y="80" width="120" height="130" rx="18" ry="18" fill="#fff2cc" stroke="#d6b656" pointer-events="none"/><g fill="#000000" font-family="Helvetica" text-anchor="middle" font-size="16px"><text x="667" y="131.5">Advertising</text><text x="667" y="150.5">Data</text><text x="667" y="169.5">= 1000 bytes</text></g><rect x="800" y="80" width="120" height="130" rx="18" ry="18" fill="#fff2cc" stroke="#d6b656" pointer-events="none"/><g fill="#000000" font-family="Helvetica" text-anchor="middle" font-size="16px"><text x="859.5" y="131.5">Advertising</text><text x="859.5" y="150.5">Data</text><text x="859.5" y="169.5">= 1000 bytes</text></g><g fill="#000000" font-family="Helvetica" text-anchor="middle" font-size="16px"><text x="469.5" y="55.5">1000 bytes</text></g><g fill="#000000" font-family="Helvetica" text-anchor="middle" font-size="16px"><text x="667" y="55.5">1000 bytes</text></g><g fill="#000000" font-family="Helvetica" text-anchor="middle" font-size="16px"><text x="859.5" y="55.5">1000 bytes</text></g><g fill="#000000" font-family="Helvetica" text-anchor="middle" font-size="16px"><text x="849.5" y="15.5">#3</text></g></svg>